<?xml version="1.0" standalone="no"?>
<!DOCTYPE svg PUBLIC "-//W3C//DTD SVG 20010904//EN"
 "http://www.w3.org/TR/2001/REC-SVG-20010904/DTD/svg10.dtd">
<svg version="1.0" xmlns="http://www.w3.org/2000/svg"
 width="16.000000pt" height="16.000000pt" viewBox="0 0 16.000000 16.000000"
 preserveAspectRatio="xMidYMid meet">
<metadata>
Created by potrace 1.11, written by Peter Selinger 2001-2013
</metadata>
<g transform="translate(0.000000,16.000000) scale(0.008333,-0.008333)"
fill="#000000" stroke="none">
<path d="M869 1876 c-2 -2 -26 -6 -54 -9 -118 -14 -264 -71 -381 -148 -77 -51
-224 -206 -270 -284 -70 -121 -115 -255 -128 -383 l-4 -41 930 0 931 -1 -7 48
c-6 44 -10 68 -20 117 -28 140 -130 320 -244 432 -174 171 -383 260 -633 269
-63 2 -117 3 -120 0z m46 -248 l-1 -153 -29 -1 c-32 -2 -174 13 -212 21 -13 3
-23 9 -23 13 0 18 77 134 115 174 40 42 120 98 140 98 7 0 10 -51 10 -152z
m144 132 c21 -10 61 -42 90 -70 49 -50 121 -156 121 -179 0 -16 -44 -24 -192
-37 l-68 -5 0 155 c0 86 2 156 5 156 3 0 23 -9 44 -20z m-403 -61 c-15 -17
-45 -64 -67 -105 l-40 -72 -71 24 c-39 13 -73 26 -75 28 -7 7 109 88 174 120
109 54 120 55 79 5z m668 6 c40 -19 102 -56 137 -82 l64 -47 -35 -14 c-19 -8
-54 -20 -78 -27 l-43 -13 -30 59 c-16 33 -46 82 -65 110 -20 27 -33 49 -30 49
4 0 40 -16 80 -35z m-806 -270 c1 -1 -6 -36 -18 -76 -11 -41 -23 -93 -26 -116
-3 -22 -9 -63 -12 -90 l-7 -48 -154 0 c-108 0 -155 3 -158 11 -7 20 35 150 73
221 19 37 52 90 74 119 l39 52 93 -35 c51 -19 94 -36 96 -38z m1146 -25 c23
-36 54 -92 68 -125 26 -63 54 -166 47 -175 -2 -3 -72 -5 -156 -5 l-152 0 -5
25 c-3 14 -8 42 -11 63 -12 83 -17 110 -35 174 -10 38 -16 69 -12 71 4 2 45
18 92 36 100 38 97 39 164 -64z m-836 -26 c65 -5 82 -10 83 -23 3 -44 4 -237
2 -246 -2 -7 -67 -10 -181 -10 l-177 1 1 24 c3 73 36 236 54 269 8 16 14 17
72 5 35 -7 100 -16 146 -20z m499 -24 c8 -25 16 -60 19 -79 3 -18 7 -43 10
-55 2 -11 6 -44 9 -71 l6 -50 -181 0 -180 0 0 137 0 138 43 1 c47 1 87 5 162
18 87 16 98 12 112 -39z"/>
<path d="M31 893 c4 -97 -6 -91 141 -89 75 0 136 -3 143 -9 6 -5 17 -30 24
-55 7 -24 26 -67 42 -95 l28 -50 -100 -97 c-98 -95 -101 -99 -86 -121 20 -29
145 -155 166 -167 14 -7 38 12 116 90 l99 98 51 -25 c27 -14 73 -34 100 -43
l50 -17 3 -140 3 -141 27 -5 c41 -8 226 -7 240 2 7 4 12 53 14 144 2 75 5 137
8 137 11 -1 118 39 159 59 28 13 48 17 55 12 6 -5 51 -48 99 -95 48 -47 92
-86 96 -86 16 0 116 86 159 137 l41 48 -100 101 -100 100 25 45 c14 24 35 72
47 107 11 34 26 62 32 63 7 1 71 2 142 3 l130 1 3 73 4 72 -326 0 -326 0 0
-25 c0 -38 -37 -127 -68 -160 -115 -129 -302 -131 -415 -6 -48 53 -69 104 -76
184 -1 4 -148 7 -327 7 l-325 0 2 -57z"/>
</g>
</svg>
